<?xml version="1.0" encoding="UTF-8"?>
<!DOCTYPE svg PUBLIC "-//W3C//DTD SVG 1.1//EN" "http://www.w3.org/Graphics/SVG/1.1/DTD/svg11.dtd">
<svg version="1.1" xmlns="http://www.w3.org/2000/svg" xmlns:xlink="http://www.w3.org/1999/xlink" x="0" y="0" width="900" height="200" viewBox="0, 0, 900, 200">
  <defs>
    <linearGradient id="Gradient_1" gradientUnits="userSpaceOnUse" x1="-58.954" y1="-68.836" x2="-58.954" y2="68.463" gradientTransform="matrix(1, 0, 0, 1, 159, 71)">
      <stop offset="0" stop-color="#45CA69"/>
      <stop offset="1" stop-color="#8FD155"/>
    </linearGradient>
    <linearGradient id="Gradient_2" gradientUnits="userSpaceOnUse" x1="-122.635" y1="7.837" x2="-122.635" y2="126.836" gradientTransform="matrix(1, 0, 0, 1, 159, 71)">
      <stop offset="0" stop-color="#40BBC7"/>
      <stop offset="1" stop-color="#037FA6"/>
    </linearGradient>
    <linearGradient id="Gradient_3" gradientUnits="userSpaceOnUse" x1="-96.988" y1="-66.696" x2="-81.786" y2="90.603" gradientTransform="matrix(1, 0, 0, 1, 159, 71)">
      <stop offset="0" stop-color="#1CE3EC"/>
      <stop offset="1" stop-color="#03BFD4"/>
    </linearGradient>
  </defs>
  <g id="Layer_1">
    <g>
      <g>
        <path d="M35.411,8.889 C45.111,-19.907 158.439,51.089 165.247,83.857 C166.22,113.149 138.529,132.512 124.426,139.463 C138.529,86.836 25.712,37.685 35.411,8.889 z" fill="url(#Gradient_1)" id="Path-2"/>
        <path d="M49.042,78.837 C54.949,109.89 -38.605,197.836 33.75,197.836 C80.442,189.99 69.393,100.3 49.042,78.837 z" fill="url(#Gradient_2)" id="Path-4"/>
        <path d="M34.822,4.304 C18.061,22.202 64.897,52.032 85.105,73.908 C156.091,139.534 115.261,157.32 65.472,173.229 C74.383,142.203 68.323,97.269 53.353,78.837 C38.383,60.405 -5.108,10.767 34.822,4.304 z" fill="url(#Gradient_3)" id="Path-3"/>
      </g>
      <path d="M247.569,60.047 L248.233,60.047 L270.347,136.084 L281.636,136.084 L307.734,40.258 L295.25,40.258 L276.058,118.486 L275.527,118.486 L253.944,40.258 L241.858,40.258 L220.275,118.486 L219.744,118.486 L200.552,40.258 L188.068,40.258 L214.166,136.084 L225.455,136.084 z" fill="#00695C"/>
      <path d="M331.708,127.451 C323.407,127.451 317.895,123.134 317.895,116.56 C317.895,110.052 323.207,105.935 332.504,105.337 L350.966,104.208 L350.966,109.853 C350.966,119.814 342.598,127.451 331.708,127.451 z M329.118,137.279 C338.415,137.279 347.181,132.099 351.298,124.197 L351.563,124.197 L351.563,136.084 L362.521,136.084 L362.521,88.337 C362.521,74.59 352.294,65.824 336.09,65.824 C319.754,65.824 309.527,74.989 308.73,86.942 L319.887,86.942 C321.348,80.169 326.926,75.985 335.825,75.985 C345.388,75.985 350.966,81.032 350.966,89.466 L350.966,95.243 L331.176,96.372 C315.238,97.302 306.141,104.739 306.141,116.56 C306.141,128.978 315.371,137.279 329.118,137.279 z" fill="#00695C"/>
      <path d="M382.908,161.916 C395.392,161.916 401.104,157.069 407.014,140.932 L434.175,67.02 L422.022,67.02 L402.897,124.529 L402.697,124.529 L383.572,67.02 L371.22,67.02 L396.721,136.15 L395.127,140.998 C392.471,149.033 388.884,152.154 382.443,152.154 C380.982,152.154 379.189,152.088 377.927,151.822 L377.927,161.518 C379.189,161.784 381.513,161.916 382.908,161.916 z" fill="#00695C"/>
      <path d="M502.043,136.084 L514.594,136.084 L479.265,40.258 L467.445,40.258 L432.116,136.084 L444.667,136.084 L454.296,108.657 L492.414,108.657 z M473.156,54.801 L473.554,54.801 L488.894,98.497 L457.816,98.497 z" fill="#00695C"/>
      <path d="M557.294,65.824 C547.267,65.824 539.232,70.938 534.981,78.708 L534.716,78.708 L534.716,67.02 L523.758,67.02 L523.758,159.127 L535.313,159.127 L535.313,124.861 L535.579,124.861 C539.696,132.431 547.665,137.279 557.56,137.279 C574.959,137.279 586.846,123.201 586.846,101.552 C586.846,79.903 574.892,65.824 557.294,65.824 z M555.036,127.119 C543.216,127.119 535.247,116.958 535.247,101.552 C535.247,86.212 543.216,75.985 555.036,75.985 C567.322,75.985 575.025,85.946 575.025,101.552 C575.025,117.224 567.322,127.119 555.036,127.119 z" fill="#00695C"/>
      <path d="M632.003,65.824 C621.975,65.824 613.94,70.938 609.69,78.708 L609.424,78.708 L609.424,67.02 L598.467,67.02 L598.467,159.127 L610.022,159.127 L610.022,124.861 L610.288,124.861 C614.405,132.431 622.374,137.279 632.269,137.279 C649.667,137.279 661.554,123.201 661.554,101.552 C661.554,79.903 649.601,65.824 632.003,65.824 z M629.745,127.119 C617.925,127.119 609.956,116.958 609.956,101.552 C609.956,86.212 617.925,75.985 629.745,75.985 C642.031,75.985 649.734,85.946 649.734,101.552 C649.734,117.224 642.031,127.119 629.745,127.119 z" fill="#00695C"/>
      <path d="M702.512,40.257 L702.512,136.084 L711.544,136.084 L711.544,99.958 L735.052,99.958 C753.314,99.958 765.865,87.872 765.865,70.075 C765.865,52.277 753.447,40.257 735.118,40.257 z M711.544,48.359 L732.993,48.359 C747.802,48.359 756.568,56.461 756.568,70.075 C756.568,83.688 747.736,91.856 732.993,91.856 L711.544,91.856 z" fill="#424242"/>
      <path d="M794.354,129.642 C784.99,129.642 778.549,124.462 778.549,116.958 C778.549,109.321 784.592,104.606 795.483,103.876 L815.936,102.481 L815.936,110.118 C815.936,121.076 806.44,129.642 794.354,129.642 z M792.561,137.213 C802.854,137.213 812.284,131.502 816.136,122.935 L816.335,122.935 L816.335,136.084 L824.702,136.084 L824.702,88.801 C824.702,74.723 814.807,65.891 799.069,65.891 C783.33,65.891 773.17,74.657 772.174,87.008 L780.674,87.008 C782.201,78.641 788.709,73.661 798.87,73.661 C809.628,73.661 815.936,79.637 815.936,89.598 L815.936,95.575 L794.42,96.903 C778.482,97.966 769.65,105.138 769.65,116.958 C769.65,129.045 778.947,137.213 792.561,137.213 z" fill="#424242"/>
      <path d="M844.359,161.053 C855.715,161.053 860.629,156.537 866.672,140.267 L893.833,67.02 L884.602,67.02 L863.551,127.318 L863.351,127.318 L842.367,67.02 L832.937,67.02 L858.836,136.549 L856.976,141.728 C853.922,150.361 850.468,153.549 844.16,153.549 C842.765,153.549 841.038,153.416 839.976,153.15 L839.976,160.655 C840.972,160.854 842.964,161.053 844.359,161.053 z" fill="#424242"/>
    </g>
  </g>
</svg>
